<svg xmlns="http://www.w3.org/2000/svg" version="1.1" xmlns:xlink="http://www.w3.org/1999/xlink" xmlns:svgjs="http://svgjs.dev/svgjs" width="1500" height="329" viewBox="0 0 1500 329"><g transform="matrix(1,0,0,1,-0.9090909090909918,0.5199304139994467)"><svg viewBox="0 0 396 87" data-background-color="#d0def9" preserveAspectRatio="xMidYMid meet" height="329" width="1500" xmlns="http://www.w3.org/2000/svg" xmlns:xlink="http://www.w3.org/1999/xlink"><g id="tight-bounds" transform="matrix(1,0,0,1,0.2400000000000091,-0.13748919762295486)"><svg viewBox="0 0 395.52 87.27497839524591" height="87.27497839524591" width="395.52"><g><svg viewBox="0 0 533.2989637122987 117.67712261376897" height="87.27497839524591" width="395.52"><g transform="matrix(1,0,0,1,137.77896371229872,16.263625484247378)"><svg viewBox="0 0 395.52 85.14987164527422" height="85.14987164527422" width="395.52"><g id="textblocktransform"><svg viewBox="0 0 395.52 85.14987164527422" height="85.14987164527422" width="395.52" id="textblock"><g><svg viewBox="0 0 395.52 85.14987164527422" height="85.14987164527422" width="395.52"><g transform="matrix(1,0,0,1,0,0)"><svg width="395.52" viewBox="0.7 -36.3 171.39000000000001 36.9" height="85.14987164527422" data-palette-color="#ff511a"><path d="M6.8-29.75Q6.8-30.75 6.33-31.4 5.85-32.05 5-32.05L5-32.05Q3.75-32.05 2.95-30.75L2.95-30.75 0.7-32.35Q1.25-33.4 2.35-34.15 3.45-34.9 4.95-34.9L4.95-34.9Q7.15-34.9 8.47-33.45 9.8-32 9.8-29.75L9.8-29.75 9.8-19.2 28.25-19.2 28.25-34.2 31.25-34.2 31.25 0 28.25 0 28.25-16.4 9.8-16.4 9.8 0 6.8 0 6.8-29.75ZM49.2 0.5Q45.75 0.5 43.3-1.25 40.85-3 39.6-5.9 38.35-8.8 38.35-12.3L38.35-12.3Q38.35-16.15 39.85-19.13 41.35-22.1 44.15-23.75 46.95-25.4 50.7-25.4L50.7-25.4Q51.85-25.4 53.6-25.28 55.35-25.15 56.7-24.95L56.7-24.95 59.7-24.95 59.7-4.3Q59.7-3.3 60.17-2.78 60.65-2.25 61.35-2.25L61.35-2.25Q62.25-2.25 62.8-3.1L62.8-3.1 64.95-1.4Q64.2-0.35 63.27 0.08 62.35 0.5 61.15 0.5L61.15 0.5Q59.4 0.5 58.07-0.7 56.75-1.9 56.75-3.6L56.75-3.6Q55.55-1.6 53.6-0.55 51.65 0.5 49.2 0.5L49.2 0.5ZM49.25-2.2Q51.5-2.2 53.3-3.3 55.1-4.4 56-6.2L56-6.2Q56.7-7.65 56.7-9.4L56.7-9.4 56.7-22.5 53.4-22.6 50.5-22.7Q45.95-22.7 43.65-19.85 41.35-17 41.35-12.4L41.35-12.4Q41.35-8.15 43.37-5.18 45.4-2.2 49.25-2.2L49.25-2.2ZM78.1 0.5Q75.6 0.5 73.25 0.2L73.25 0.2Q70.8-0.1 69.55-0.5L69.55-0.5 69.55-36.3 72.55-36.3 72.55-21.65Q73.8-23.55 75.82-24.48 77.85-25.4 80.15-25.4L80.15-25.4Q83.3-25.4 85.72-23.75 88.15-22.1 89.47-19.15 90.8-16.2 90.8-12.45L90.8-12.45Q90.8-6.8 87.67-3.15 84.55 0.5 78.1 0.5L78.1 0.5ZM78.05-2.2Q83.3-2.2 85.55-5.03 87.8-7.85 87.8-12.4L87.8-12.4Q87.8-15.65 86.77-17.98 85.75-20.3 83.97-21.5 82.2-22.7 80-22.7L80-22.7Q77.45-22.7 75.25-21.15L75.25-21.15Q72.8-19.45 72.55-16.4L72.55-16.4 72.55-2.65 75.2-2.35Q76.5-2.2 78.05-2.2L78.05-2.2ZM99.74-4.2Q99.74-3.5 100.22-3.03 100.69-2.55 101.34-2.55L101.34-2.55Q102.34-2.55 102.79-3.4L102.79-3.4 104.99-1.75Q104.59-0.9 103.59-0.33 102.59 0.25 101.34 0.25L101.34 0.25Q99.34 0.25 98.04-1 96.74-2.25 96.74-4.25L96.74-4.25 96.74-25 99.74-25 99.74-4.2ZM98.09-28.25Q97.24-28.25 96.62-28.88 95.99-29.5 95.99-30.35L95.99-30.35Q95.99-31.25 96.62-31.88 97.24-32.5 98.09-32.5L98.09-32.5Q98.99-32.5 99.62-31.88 100.24-31.25 100.24-30.35L100.24-30.35Q100.24-29.5 99.62-28.88 98.99-28.25 98.09-28.25L98.09-28.25ZM115.34 0.5Q111.94 0.5 110.34-1.43 108.74-3.35 108.74-7.2L108.74-7.2 108.74-31.25 111.74-31.25 111.74-24.9 119.59-24.9 119.59-22.2 111.74-22.2 111.74-7.2Q111.74-2.2 115.34-2.2L115.34-2.2Q118.19-2.2 119.74-5.25L119.74-5.25 121.99-3.7Q120.84-1.6 119.24-0.55 117.64 0.5 115.34 0.5L115.34 0.5ZM149.54-3.1L151.69-1.4Q150.94-0.35 150.01 0.08 149.09 0.5 147.89 0.5L147.89 0.5Q146.14 0.5 144.81-0.7 143.49-1.9 143.49-3.6L143.49-3.6Q140.04 0.4 135.14 0.4L135.14 0.4Q131.39 0.4 129.29-1.43 127.19-3.25 126.99-6.95L126.99-6.95 126.99-17.65Q126.99-21.6 124.89-23.45L124.89-23.45 126.89-25.45Q128.09-24.7 129.04-23.1 129.99-21.5 129.99-19.65L129.99-19.65 129.99-8.25Q129.99-5.4 131.26-3.85 132.54-2.3 135.44-2.3L135.44-2.3Q138.19-2.3 140.16-3.5 142.14-4.7 143.44-7.3L143.44-7.3 143.49-25 146.49-25 146.44-4.3Q146.44-3.3 146.91-2.78 147.39-2.25 148.09-2.25L148.09-2.25Q148.99-2.25 149.54-3.1L149.54-3.1ZM163.24 0.6Q158.19 0.6 153.84-3.3L153.84-3.3 155.49-5.3Q157.39-3.75 159.26-2.93 161.14-2.1 163.29-2.1L163.29-2.1Q165.99-2.1 167.51-3.38 169.04-4.65 169.04-6.85L169.04-6.85Q169.04-8.25 168.36-9.13 167.69-10 166.56-10.55 165.44-11.1 162.54-12.3L162.54-12.3Q159.89-13.4 158.44-14.2 156.99-15 156.14-16.18 155.29-17.35 155.29-19.15L155.29-19.15Q155.29-22.1 157.39-23.88 159.49-25.65 162.99-25.65L162.99-25.65Q164.79-25.65 166.56-25.15 168.34-24.65 169.59-23.7L169.59-23.7 168.34-21.55Q166.04-22.95 163.14-22.95L163.14-22.95Q160.84-22.95 159.59-22.05 158.34-21.15 158.34-19.5L158.34-19.5Q158.34-18.25 159.01-17.45 159.69-16.65 160.76-16.13 161.84-15.6 164.34-14.6L164.34-14.6Q167.19-13.45 168.76-12.53 170.34-11.6 171.21-10.28 172.09-8.95 172.09-7L172.09-7Q172.09-3.55 169.66-1.48 167.24 0.6 163.24 0.6L163.24 0.6Z" opacity="1" transform="matrix(1,0,0,1,0,0)" fill="#ff511a" class="wordmark-text-0" data-fill-palette-color="primary" id="text-0"></path></svg></g></svg></g></svg></g></svg></g><g><svg viewBox="0 0 117.67712261376897 117.67712261376897" height="117.67712261376897" width="117.67712261376897"><g><svg xmlns="http://www.w3.org/2000/svg" xmlns:xlink="http://www.w3.org/1999/xlink" version="1.1" baseProfile="tiny" x="0" y="0" viewBox="0 0 100 100" xml:space="preserve" height="117.67712261376897" width="117.67712261376897" class="icon-icon-0" data-fill-palette-color="accent" id="icon-0"><path d="M100 52.993v-6.004H53.466v-3.947h45.905c0 0-3.666-37.641-41.991-42.47v34.642h31.661c0 0-5.333-14.49-13.331-17.821v11.992H63.546V8.566c0 0 22.161 3.165 29.327 29.313l-39.407-0.232V0h-6.005v37.611L8.058 37.379c0 0 5.331-23.317 29.826-29.812l-0.333 21.818H25.554V17.061c0 0-9.998 4.996-13.997 18.154H43.05V0.739c0 0-37.326 5.496-42.491 42.303h46.902v3.947H0v6.004h47.461v4.537H0.642c5.166 36.806 42.492 42.302 42.492 42.302V65.357H11.64c3.999 13.158 13.997 18.154 13.997 18.154V71.187h11.998l0.333 21.818C13.473 86.51 8.141 63.192 8.141 63.192l39.32-0.231v36.988h6.005V62.925l39.49-0.231c-7.165 26.147-29.327 29.313-29.327 29.313V71.187h12.165v11.991c7.998-3.33 13.33-17.819 13.33-17.819H57.463V100c38.326-4.829 41.992-42.47 41.992-42.47H53.466v-4.537H100z" fill="#ff511a" data-fill-palette-color="accent"></path></svg></g></svg></g></svg></g><defs></defs></svg><rect width="395.52" height="87.27497839524591" fill="none" stroke="none" visibility="hidden"></rect></g></svg></g></svg>